<svg width="26" height="25" viewBox="0 0 26 25" fill="none" xmlns="http://www.w3.org/2000/svg">
<path d="M18.0414 3.05536C16.3717 2.05622 14.5503 1.55664 12.5722 1.55664C10.5957 1.55664 8.77266 2.05622 7.10215 3.05536C5.43417 4.05363 4.1115 5.40876 3.13751 7.11983C2.16186 8.83266 1.67572 10.7004 1.67572 12.7274C1.67572 15.1609 2.3689 17.3488 3.75443 19.2932C5.13996 21.234 6.92949 22.5831 9.12471 23.3273C9.37952 23.376 9.56894 23.3421 9.69132 23.2254C9.81454 23.1079 9.87572 22.9644 9.87572 22.7902L9.86903 22.0026C9.864 21.5082 9.86063 21.0774 9.86063 20.7083L9.53543 20.7658C9.32755 20.805 9.06435 20.8215 8.74752 20.8164C8.43153 20.812 8.10212 20.7781 7.76181 20.7146C7.42403 20.6518 7.10802 20.5074 6.81465 20.2793C6.5213 20.0512 6.31342 19.7528 6.19021 19.3846L6.04772 19.0487C5.95384 18.8259 5.80464 18.5787 5.6018 18.3089C5.39811 18.0355 5.19276 17.8511 4.98489 17.7545L4.88431 17.6823C4.81894 17.6334 4.75858 17.576 4.69991 17.5081C4.64375 17.4402 4.60183 17.3724 4.57418 17.3045C4.54568 17.2349 4.56831 17.1801 4.64375 17.1365C4.71918 17.0912 4.85664 17.0713 5.05446 17.0713L5.33944 17.1147C5.5272 17.153 5.7619 17.2698 6.04101 17.463C6.32013 17.6579 6.54979 17.9094 6.72833 18.2202C6.94626 18.617 7.20861 18.9199 7.51622 19.1287C7.82384 19.3376 8.13397 19.4421 8.44662 19.4421C8.75674 19.4421 9.02747 19.4159 9.25462 19.3689C9.48094 19.3202 9.69468 19.2472 9.89164 19.1514C9.97882 18.5004 10.2102 18.0008 10.5873 17.6518C10.0492 17.5926 9.56476 17.5056 9.13477 17.3889C8.70393 17.2732 8.2597 17.0844 7.80204 16.8214C7.34104 16.5604 6.96135 16.2365 6.65876 15.8467C6.35701 15.462 6.10807 14.9502 5.91528 14.3236C5.72249 13.6909 5.62443 12.9659 5.62443 12.1408C5.62443 10.9685 5.99659 9.96931 6.74426 9.14423C6.39389 8.26172 6.42574 7.273 6.84484 6.17639C7.11724 6.08936 7.52377 6.15463 8.06356 6.37222C8.60251 6.58979 8.99646 6.77691 9.24709 6.93097C9.49853 7.08763 9.69971 7.21818 9.85058 7.32436C10.7282 7.07718 11.6351 6.95273 12.5722 6.95273C13.5093 6.95273 14.4162 7.07892 15.2963 7.33045L15.8352 6.98058C16.204 6.74819 16.6399 6.53671 17.1412 6.34088C17.644 6.14767 18.0279 6.09457 18.2929 6.18161C18.7178 7.27824 18.7563 8.26606 18.406 9.14946C19.152 9.97279 19.5258 10.9719 19.5258 12.1452C19.5258 12.9685 19.4285 13.6987 19.235 14.334C19.0421 14.9694 18.7907 15.4812 18.4823 15.8632C18.1755 16.2462 17.7933 16.5681 17.3339 16.8311C16.8754 17.0921 16.4286 17.281 16.0012 17.3968C15.5704 17.5134 15.0876 17.6004 14.5461 17.6579C15.0381 18.093 15.2837 18.7806 15.2837 19.7232V22.7928C15.2837 22.9669 15.3424 23.1113 15.4614 23.2279C15.5788 23.3438 15.7656 23.3786 16.0214 23.3299C18.2174 22.5814 20.0061 21.2376 21.3916 19.2915C22.7771 17.3506 23.4703 15.16 23.4703 12.7274C23.4703 10.7013 22.9824 8.83266 22.0085 7.12071C21.0337 5.40961 19.7118 4.0545 18.0439 3.05623L18.0414 3.05536Z" fill="#8A8F98"/>
</svg>
