<svg width="26" height="25" viewBox="0 0 26 25" fill="none" xmlns="http://www.w3.org/2000/svg">
<path d="M6.38921 15.334C6.38921 16.6006 5.36623 17.6245 4.10053 17.6245C2.8348 17.6245 1.81183 16.6006 1.81183 15.334C1.81183 14.0672 2.8348 13.0435 4.10053 13.0435H6.38921V15.334ZM7.53356 15.334C7.53356 14.0672 8.55654 13.0435 9.82224 13.0435C11.088 13.0435 12.1109 14.0672 12.1109 15.334V21.0603C12.1109 22.327 11.088 23.3507 9.82224 23.3507C8.55654 23.3507 7.53356 22.327 7.53356 21.0603V15.334Z" fill="#8A8F98"/>
<path d="M15.5614 18.7698C16.8272 18.7698 17.8501 19.7935 17.8501 21.0603C17.8501 22.327 16.8272 23.3507 15.5614 23.3507C14.2957 23.3507 13.2728 22.327 13.2728 21.0603V18.7698H15.5614ZM15.5614 17.6245C14.2957 17.6245 13.2728 16.6006 13.2728 15.334C13.2728 14.0672 14.2957 13.0435 15.5614 13.0435H21.3005C22.5662 13.0435 23.5893 14.0672 23.5893 15.334C23.5893 16.6006 22.5662 17.6245 21.3005 17.6245H15.5614Z" fill="#8A8F98"/>
<path d="M18.9945 9.5908C18.9945 8.32407 20.0175 7.30028 21.2833 7.30028C22.5489 7.30028 23.5718 8.32407 23.5718 9.5908C23.5718 10.8575 22.5489 11.8813 21.2833 11.8813H18.9945V9.5908ZM17.8501 9.5908C17.8501 10.8575 16.8272 11.8813 15.5615 11.8813C14.2957 11.8813 13.2728 10.8575 13.2728 9.5908V3.84716C13.2728 2.58043 14.2957 1.55664 15.5615 1.55664C16.8272 1.55664 17.8501 2.58043 17.8501 3.84716V9.5908Z" fill="#8A8F98"/>
<path d="M9.82219 6.13768C8.55649 6.13768 7.5335 5.11388 7.5335 3.84716C7.5335 2.58043 8.55649 1.55664 9.82219 1.55664C11.0879 1.55664 12.1109 2.58043 12.1109 3.84716V6.13768H9.82219ZM9.82219 7.30028C11.0879 7.30028 12.1109 8.32407 12.1109 9.5908C12.1109 10.8575 11.0879 11.8813 9.82219 11.8813H4.08313C2.81741 11.8813 1.79443 10.8575 1.79443 9.5908C1.79443 8.32407 2.81741 7.30028 4.08313 7.30028H9.82219Z" fill="#8A8F98"/>
</svg>
