<svg width="25" height="25" viewBox="0 0 25 25" fill="none" xmlns="http://www.w3.org/2000/svg">
<g clip-path="url(#clip0_3_1806)">
<path d="M24.9081 5.32389C24.0326 5.70529 23.1057 5.95551 22.1573 6.06646C23.1537 5.48231 23.9027 4.55455 24.2636 3.45734C23.3373 3.99753 22.3129 4.39139 21.2217 4.60155C20.77 4.1297 20.2271 3.75449 19.6261 3.49867C19.0251 3.24285 18.3784 3.11174 17.7252 3.11329C15.0787 3.11329 12.9335 5.22426 12.9335 7.83027C12.9335 8.19922 12.9771 8.55727 13.058 8.90443C11.1598 8.81408 9.30116 8.32914 7.60075 7.48054C5.90033 6.63193 4.39541 5.4383 3.18196 3.97574C2.75771 4.69382 2.53405 5.51264 2.53434 6.34668C2.53434 7.98127 3.38122 9.4275 4.6671 10.2728C3.90677 10.2491 3.16275 10.0464 2.49543 9.68125V9.74352C2.49543 12.0273 4.14559 13.9343 6.33906 14.3671C5.63284 14.5552 4.89347 14.5829 4.17517 14.448C4.48875 15.391 5.08821 16.2129 5.89027 16.7996C6.69233 17.3863 7.65719 17.7086 8.65084 17.7219C6.94608 19.0357 4.85318 19.7459 2.70092 19.741C2.31329 19.741 1.93188 19.7192 1.5567 19.6756C3.75403 21.0639 6.3008 21.7987 8.89992 21.7944C17.7127 21.7944 22.5309 14.6084 22.5309 8.37669C22.5309 8.17431 22.5262 7.97038 22.5169 7.768C23.4525 7.10336 24.2622 6.2773 24.9081 5.32856V5.32389Z" fill="#8A8F98"/>
</g>
<defs>
<clipPath id="clip0_3_1806">
<rect width="24.9081" height="24.9081" fill="white"/>
</clipPath>
</defs>
</svg>
