<svg width="36" height="36" viewBox="0 0 36 36" fill="none" xmlns="http://www.w3.org/2000/svg">
<path d="M16.25 18C16.25 18.4641 16.4344 18.9092 16.7626 19.2374C17.0908 19.5656 17.5359 19.75 18 19.75C18.4641 19.75 18.9092 19.5656 19.2374 19.2374C19.5656 18.9092 19.75 18.4641 19.75 18C19.75 17.5359 19.5656 17.0908 19.2374 16.7626C18.9092 16.4344 18.4641 16.25 18 16.25C17.5359 16.25 17.0908 16.4344 16.7626 16.7626C16.4344 17.0908 16.25 17.5359 16.25 18Z" stroke="#1A1A1A" stroke-width="3.5" stroke-linecap="round" stroke-linejoin="round"/>
<path d="M24.825 32.1925V32.21M30.32 27.8175V27.835M33.3475 21.5V21.5175M33.3475 14.5V14.5175M30.32 8.1825V8.2M24.825 3.8075V3.825M18 2.25V2.2675M11.175 3.8075V3.825M5.67997 8.1825V8.2M2.65247 14.5V14.5175M2.65247 21.5V21.5175M5.67997 27.8175V27.835M11.175 32.1925V32.21M18 33.75V33.7675M9.24997 18C9.24997 20.3206 10.1718 22.5462 11.8128 24.1872C13.4537 25.8281 15.6793 26.75 18 26.75C20.3206 26.75 22.5462 25.8281 24.1872 24.1872C25.8281 22.5462 26.75 20.3206 26.75 18C26.75 15.6794 25.8281 13.4538 24.1872 11.8128C22.5462 10.1719 20.3206 9.25 18 9.25C15.6793 9.25 13.4537 10.1719 11.8128 11.8128C10.1718 13.4538 9.24997 15.6794 9.24997 18Z" stroke="#1A1A1A" stroke-width="3.5" stroke-linecap="round" stroke-linejoin="round"/>
</svg>
