<svg width="23" height="19" viewBox="0 0 23 19" fill="none" xmlns="http://www.w3.org/2000/svg">
<path d="M12.7976 6.01789C16.2304 6.01789 18.1778 8.20969 18.461 10.8567L18.5476 10.8567C20.7568 10.8567 22.5476 12.5797 22.5476 14.7051C22.5476 16.8306 20.7568 18.5536 18.5476 18.5536H7.04761C4.83847 18.5536 3.04761 16.8306 3.04761 14.7051C3.04761 12.5797 4.83847 10.8567 7.04764 10.8567L7.13425 10.8567C7.41911 8.19229 9.36482 6.01789 12.7976 6.01789ZM12.7976 7.41075C10.5002 7.41075 8.49772 9.18009 8.49772 11.6241C8.49772 12.0113 8.14395 12.3152 7.73887 12.3152L6.97294 12.3151C5.57429 12.3151 4.44047 13.3999 4.44047 14.7379C4.44047 16.076 5.57429 17.1607 6.97294 17.1607H18.6223C20.0209 17.1607 21.1548 16.076 21.1548 14.7379C21.1548 13.3999 20.0209 12.3151 18.6223 12.3151L17.8564 12.3152C17.4513 12.3152 17.0975 12.0113 17.0975 11.6241C17.0975 9.14874 15.095 7.41075 12.7976 7.41075ZM2.77353 9.77974C2.88484 10.103 2.74448 10.4521 2.45649 10.6136L2.34178 10.665L1.22554 11.0493C0.861866 11.1745 0.465539 10.9812 0.340317 10.6176C0.229008 10.2943 0.369373 9.94523 0.657357 9.78371L0.772068 9.73234L1.88831 9.34799C2.25198 9.22276 2.64831 9.41607 2.77353 9.77974ZM9.89947 3.92893C10.3626 4.15482 10.7705 4.44866 11.1169 4.79258C10.5509 4.90838 10.022 5.08473 9.53403 5.31464C9.45653 5.26721 9.37405 5.22236 9.28888 5.18082C7.7124 4.41192 5.8111 5.06659 5.04221 6.64306C4.50621 7.74201 4.66198 8.9988 5.33955 9.91981C4.87995 10.0567 4.44768 10.2556 4.05194 10.5058C3.22032 9.20843 3.06483 7.51994 3.79031 6.03248C4.89643 3.7646 7.63159 2.82281 9.89947 3.92893ZM1.5375 4.16507L1.65493 4.20986L2.71601 4.72738C3.06171 4.89599 3.20528 5.31292 3.03667 5.65862C2.88679 5.96591 2.54071 6.11349 2.22286 6.02407L2.10543 5.97928L1.04434 5.46175C0.698644 5.29314 0.555083 4.87621 0.723692 4.53051C0.873567 4.22322 1.21965 4.07565 1.5375 4.16507ZM11.3897 0.857918C11.697 1.00779 11.8445 1.35387 11.7551 1.67173L11.7103 1.78916L11.1928 2.85024C11.0242 3.19594 10.6073 3.3395 10.2616 3.17089C9.95427 3.02102 9.8067 2.67494 9.89612 2.35709L9.94091 2.23965L10.4584 1.17857C10.627 0.83287 11.044 0.689309 11.3897 0.857918ZM6.11093 0.812753L6.16229 0.927464L6.54665 2.04371C6.67187 2.40738 6.47857 2.80371 6.1149 2.92893C5.79163 3.04024 5.44257 2.89987 5.28104 2.61189L5.22967 2.49718L4.84532 1.38093C4.7201 1.01726 4.9134 0.620935 5.27707 0.495713C5.60034 0.384404 5.9494 0.524768 6.11093 0.812753Z" fill="#FDFDFD"/>
</svg>
