<svg width="176" height="38" viewBox="0 0 176 38" fill="none" xmlns="http://www.w3.org/2000/svg">
<path d="M3.17276 23.6271C1.50195 21.8852 0.666545 19.7611 0.666545 17.2549C0.666545 16.0107 0.888727 14.8465 1.33309 13.7622C1.77745 12.6602 2.39068 11.7004 3.17276 10.8828C3.95483 10.0474 4.86134 9.39858 5.89226 8.93644C6.92318 8.45653 8.0252 8.21657 9.19832 8.21657C10.3714 8.21657 11.4735 8.45653 12.5044 8.93644C13.5353 9.39858 14.4418 10.0474 15.2239 10.8828C16.0237 11.7004 16.6459 12.6602 17.0902 13.7622C17.5346 14.8465 17.7568 16.0107 17.7568 17.2549C17.7568 19.7611 16.9214 21.8852 15.2506 23.6271C14.0952 24.8358 12.7977 25.6356 11.3579 26.0267C9.91819 26.4355 8.47845 26.4355 7.03872 26.0267C5.61675 25.6356 4.3281 24.8358 3.17276 23.6271ZM9.62491 24.9335C10.6381 24.9335 11.4912 24.6136 12.1844 23.9737C12.8954 23.316 13.4376 22.4451 13.8108 21.3608C14.1841 20.2588 14.3707 19.059 14.3707 17.7615C14.3707 16.4106 14.193 15.122 13.8375 13.8955C13.6064 13.0957 13.2509 12.3669 12.771 11.7093C12.3089 11.0338 11.7401 10.5006 11.0647 10.1096C10.407 9.71852 9.65157 9.523 8.7984 9.523C7.78525 9.523 6.92318 9.84294 6.2122 10.4828C5.51899 11.1227 4.98576 11.9848 4.61249 13.069C4.257 14.1533 4.07926 15.3531 4.07926 16.6684C4.07926 18.0015 4.26589 19.2723 4.63915 20.481C4.888 21.2809 5.24349 22.0185 5.70563 22.6939C6.16776 23.3694 6.72766 23.9115 7.38532 24.3203C8.06075 24.7291 8.80728 24.9335 9.62491 24.9335ZM19.3298 26.1066C19.2587 26.0355 19.2232 25.8667 19.2232 25.6001C19.2232 25.3335 19.2587 25.2001 19.3298 25.2001C19.472 25.2001 19.6675 25.1735 19.9164 25.1202C20.183 25.0491 20.4229 24.9691 20.6362 24.8802C20.8673 24.7736 20.9917 24.6847 21.0095 24.6136C21.1339 24.1159 21.1961 23.4671 21.1961 22.6673V18.3214C21.1961 17.5215 21.0539 16.9528 20.7695 16.615C20.6096 16.4195 20.4052 16.2951 20.1563 16.2418C19.9253 16.1707 19.7209 16.1262 19.5431 16.1085C19.3654 16.0729 19.2765 16.0285 19.2765 15.9752C19.2765 15.4775 19.3209 15.2109 19.4098 15.1753C19.8186 15.1398 20.4141 15.0509 21.1961 14.9087C21.996 14.7665 22.7425 14.6065 23.4357 14.4288C23.4713 14.411 23.5513 14.3932 23.6757 14.3755C23.8179 14.3399 23.8979 14.3221 23.9156 14.3221C23.9867 14.3221 24.049 14.3843 24.1023 14.5088C24.1556 14.6332 24.1823 14.7309 24.1823 14.802C24.1467 15.0509 24.12 15.2553 24.1023 15.4153C24.0845 15.5752 24.0756 15.6908 24.0756 15.7619C24.0756 15.8507 24.0934 15.8952 24.1289 15.8952C24.1467 15.8952 24.1823 15.8685 24.2356 15.8152C24.6622 15.3886 25.2043 15.0153 25.862 14.6954C26.5374 14.3755 27.2217 14.2155 27.9149 14.2155C30.2078 14.2155 31.3543 16.0374 31.3543 19.6812V22.214C31.3543 23.3338 31.4165 24.1337 31.5409 24.6136C31.5765 24.6847 31.7009 24.7736 31.9142 24.8802C32.1453 24.9691 32.3852 25.0491 32.6341 25.1202C32.9007 25.1735 33.0873 25.2001 33.194 25.2001C33.2473 25.2001 33.2739 25.3335 33.2739 25.6001C33.2917 25.8489 33.2828 26.0178 33.2473 26.1066C33.1762 26.0889 32.9273 26.0622 32.5007 26.0267C32.0919 26.0089 31.6387 25.9911 31.141 25.9733C30.6611 25.9378 30.2789 25.92 29.9945 25.92C29.7101 25.92 29.3369 25.9378 28.8747 25.9733C28.4304 25.9911 28.0038 26.0089 27.595 26.0267C27.2039 26.0622 26.9551 26.0889 26.8484 26.1066C26.7773 26.0355 26.7418 25.8667 26.7418 25.6001C26.7418 25.3335 26.7773 25.2001 26.8484 25.2001C26.9906 25.2001 27.1773 25.1735 27.4083 25.1202C27.6394 25.0491 27.8527 24.9691 28.0482 24.8802C28.2615 24.7736 28.3771 24.6847 28.3948 24.6136C28.4659 24.347 28.5192 24.0537 28.5548 23.7337C28.5903 23.4138 28.6081 23.0583 28.6081 22.6673V20.1344C28.6081 18.6591 28.4037 17.6282 27.9949 17.0416C27.6039 16.4551 26.9729 16.1618 26.1019 16.1618C25.5331 16.1618 25.0354 16.3218 24.6088 16.6417C24.1823 16.9439 23.969 17.2727 23.969 17.6282V22.214C23.969 23.3338 24.0312 24.1337 24.1556 24.6136C24.1911 24.6847 24.3156 24.7736 24.5289 24.8802C24.7422 24.9691 24.9732 25.0491 25.2221 25.1202C25.4709 25.1735 25.6398 25.2001 25.7286 25.2001C25.7997 25.2001 25.8353 25.3335 25.8353 25.6001C25.8531 25.8489 25.8442 26.0178 25.8086 26.1066C25.7198 26.0889 25.462 26.0622 25.0354 26.0267C24.6266 26.0089 24.1911 25.9911 23.729 25.9733C23.2669 25.9378 22.8936 25.92 22.6092 25.92C22.3248 25.92 21.9427 25.9378 21.4628 25.9733C20.9828 25.9911 20.5296 26.0089 20.103 26.0267C19.6942 26.0622 19.4365 26.0889 19.3298 26.1066ZM34.8736 26.08C34.8025 26.0089 34.767 25.84 34.767 25.5734C34.767 25.3246 34.8025 25.2001 34.8736 25.2001C35.0158 25.2001 35.2025 25.1646 35.4335 25.0935C35.6646 25.0224 35.8779 24.9335 36.0734 24.8269C36.2867 24.7202 36.4023 24.6314 36.42 24.5603C36.4911 24.2581 36.5444 23.9382 36.58 23.6004C36.6155 23.2627 36.6333 22.925 36.6333 22.5873V11.496C36.6333 10.8205 36.58 10.2162 36.4734 9.68297C36.4023 9.39858 35.9579 9.25638 35.1403 9.25638H34.8736C34.767 9.25638 34.7137 9.14974 34.7137 8.93644C34.7137 8.65205 34.767 8.50985 34.8736 8.50985C35.8512 8.42098 36.7311 8.2699 37.5132 8.0566C38.313 7.84331 38.8463 7.68334 39.1129 7.57669L39.2995 7.49671H39.3528C39.4239 7.49671 39.495 7.55003 39.5661 7.65668C39.655 7.76332 39.7083 7.8522 39.7261 7.92329C39.5128 8.58095 39.4062 9.41636 39.4062 10.4295V22.1607C39.4062 23.2805 39.4684 24.0803 39.5928 24.5603C39.6283 24.6314 39.7439 24.7202 39.9394 24.8269C40.1349 24.9335 40.3482 25.0224 40.5793 25.0935C40.8103 25.1646 40.9703 25.2001 41.0592 25.2001C41.1125 25.2001 41.1392 25.3246 41.1392 25.5734C41.1569 25.8223 41.1481 25.9911 41.1125 26.08C40.5615 26.0444 40.0016 26.0089 39.4328 25.9733C38.864 25.9378 38.393 25.92 38.0197 25.92C37.4687 25.92 36.8999 25.9378 36.3134 25.9733C35.7446 26.0089 35.2647 26.0444 34.8736 26.08ZM42.6322 26.08C42.5611 26.0089 42.5256 25.84 42.5256 25.5734C42.5256 25.3246 42.5611 25.2001 42.6322 25.2001C42.7744 25.2001 42.9611 25.1646 43.1921 25.0935C43.4232 25.0224 43.6365 24.9335 43.832 24.8269C44.0453 24.7202 44.1608 24.6314 44.1786 24.5603C44.2497 24.2581 44.303 23.9382 44.3386 23.6004C44.3741 23.2627 44.3919 22.925 44.3919 22.5873V18.2947C44.3919 17.4593 44.2497 16.8905 43.9653 16.5884C43.8053 16.3929 43.6009 16.2596 43.3521 16.1885C43.121 16.1174 42.9077 16.0729 42.7122 16.0551C42.5345 16.0374 42.4456 16.0107 42.4456 15.9752C42.4456 15.4419 42.49 15.1753 42.5789 15.1753C43.1477 15.1042 43.7698 15.0064 44.4452 14.882C45.1384 14.7398 45.7605 14.6065 46.3116 14.4821L47.1647 14.2688C47.2892 14.2688 47.3514 14.4466 47.3514 14.802C47.3514 15.0331 47.3158 15.3708 47.2447 15.8152C47.1914 16.2418 47.1647 16.6684 47.1647 17.095V22.1607C47.1647 23.2805 47.2269 24.0803 47.3514 24.5603C47.3869 24.6314 47.5025 24.7202 47.698 24.8269C47.8935 24.9335 48.1068 25.0224 48.3379 25.0935C48.5689 25.1646 48.7289 25.2001 48.8178 25.2001C48.8711 25.2001 48.8978 25.3246 48.8978 25.5734C48.9155 25.8223 48.9066 25.9911 48.8711 26.08C48.3201 26.0444 47.7602 26.0089 47.1914 25.9733C46.6226 25.9378 46.1516 25.92 45.7783 25.92C45.2273 25.92 44.6585 25.9378 44.072 25.9733C43.5032 26.0089 43.0233 26.0444 42.6322 26.08ZM45.565 11.496C45.1207 11.496 44.7385 11.336 44.4186 11.0161C44.0986 10.6961 43.9387 10.314 43.9387 9.86961C43.9387 9.42524 44.0986 9.05198 44.4186 8.74981C44.7385 8.42987 45.1207 8.2699 45.565 8.2699C46.0094 8.2699 46.3827 8.42987 46.6848 8.74981C47.0048 9.05198 47.1647 9.42524 47.1647 9.86961C47.1647 10.314 47.0048 10.6961 46.6848 11.0161C46.3827 11.336 46.0094 11.496 45.565 11.496ZM50.3108 26.1066C50.2397 26.0355 50.2042 25.8667 50.2042 25.6001C50.2042 25.3335 50.2397 25.2001 50.3108 25.2001C50.453 25.2001 50.6485 25.1735 50.8974 25.1202C51.164 25.0491 51.404 24.9691 51.6173 24.8802C51.8483 24.7736 51.9728 24.6847 51.9905 24.6136C52.1149 24.1159 52.1772 23.4671 52.1772 22.6673V18.3214C52.1772 17.5215 52.035 16.9528 51.7506 16.615C51.5906 16.4195 51.3862 16.2951 51.1373 16.2418C50.9063 16.1707 50.7019 16.1262 50.5241 16.1085C50.3464 16.0729 50.2575 16.0285 50.2575 15.9752C50.2575 15.4775 50.3019 15.2109 50.3908 15.1753C50.7996 15.1398 51.3951 15.0509 52.1772 14.9087C52.977 14.7665 53.7235 14.6065 54.4167 14.4288C54.4523 14.411 54.5323 14.3932 54.6567 14.3755C54.7989 14.3399 54.8789 14.3221 54.8967 14.3221C54.9678 14.3221 55.03 14.3843 55.0833 14.5088C55.1366 14.6332 55.1633 14.7309 55.1633 14.802C55.1277 15.0509 55.1011 15.2553 55.0833 15.4153C55.0655 15.5752 55.0566 15.6908 55.0566 15.7619C55.0566 15.8507 55.0744 15.8952 55.11 15.8952C55.1277 15.8952 55.1633 15.8685 55.2166 15.8152C55.6432 15.3886 56.1853 15.0153 56.843 14.6954C57.5184 14.3755 58.2027 14.2155 58.8959 14.2155C61.1888 14.2155 62.3353 16.0374 62.3353 19.6812V22.214C62.3353 23.3338 62.3975 24.1337 62.5219 24.6136C62.5575 24.6847 62.6819 24.7736 62.8952 24.8802C63.1263 24.9691 63.3662 25.0491 63.6151 25.1202C63.8817 25.1735 64.0683 25.2001 64.175 25.2001C64.2283 25.2001 64.255 25.3335 64.255 25.6001C64.2727 25.8489 64.2638 26.0178 64.2283 26.1066C64.1572 26.0889 63.9084 26.0622 63.4818 26.0267C63.0729 26.0089 62.6197 25.9911 62.122 25.9733C61.6421 25.9378 61.2599 25.92 60.9756 25.92C60.6912 25.92 60.3179 25.9378 59.8558 25.9733C59.4114 25.9911 58.9848 26.0089 58.576 26.0267C58.185 26.0622 57.9361 26.0889 57.8295 26.1066C57.7584 26.0355 57.7228 25.8667 57.7228 25.6001C57.7228 25.3335 57.7584 25.2001 57.8295 25.2001C57.9717 25.2001 58.1583 25.1735 58.3894 25.1202C58.6204 25.0491 58.8337 24.9691 59.0292 24.8802C59.2425 24.7736 59.3581 24.6847 59.3758 24.6136C59.4469 24.347 59.5003 24.0537 59.5358 23.7337C59.5714 23.4138 59.5891 23.0583 59.5891 22.6673V20.1344C59.5891 18.6591 59.3847 17.6282 58.9759 17.0416C58.5849 16.4551 57.9539 16.1618 57.0829 16.1618C56.5141 16.1618 56.0165 16.3218 55.5899 16.6417C55.1633 16.9439 54.95 17.2727 54.95 17.6282V22.214C54.95 23.3338 55.0122 24.1337 55.1366 24.6136C55.1722 24.6847 55.2966 24.7736 55.5099 24.8802C55.7232 24.9691 55.9542 25.0491 56.2031 25.1202C56.4519 25.1735 56.6208 25.2001 56.7097 25.2001C56.7808 25.2001 56.8163 25.3335 56.8163 25.6001C56.8341 25.8489 56.8252 26.0178 56.7897 26.1066C56.7008 26.0889 56.443 26.0622 56.0165 26.0267C55.6076 26.0089 55.1722 25.9911 54.71 25.9733C54.2479 25.9378 53.8746 25.92 53.5902 25.92C53.3058 25.92 52.9237 25.9378 52.4438 25.9733C51.9639 25.9911 51.5106 26.0089 51.084 26.0267C50.6752 26.0622 50.4175 26.0889 50.3108 26.1066ZM71.3737 26.16C70.3427 26.16 69.3918 25.9022 68.5208 25.3868C67.6677 24.8535 66.9834 24.1426 66.4679 23.2538C65.9524 22.3473 65.6947 21.352 65.6947 20.2677C65.6947 19.059 65.9347 18.0015 66.4146 17.095C66.8945 16.1885 67.5432 15.4864 68.3609 14.9887C69.1963 14.4732 70.1472 14.2155 71.2137 14.2155C72.0846 14.2155 72.8312 14.3755 73.4533 14.6954C74.0754 15.0153 74.582 15.433 74.973 15.9485C75.3818 16.4462 75.6751 16.9794 75.8528 17.5482C76.0484 18.0992 76.1461 18.6147 76.1461 19.0946C76.1461 19.4856 76.075 19.7345 75.9328 19.8411C75.8084 19.93 75.5418 19.9744 75.133 19.9744H68.7608C68.6364 19.9744 68.5742 20.0278 68.5742 20.1344C68.5742 20.7921 68.6897 21.4142 68.9208 22.0007C69.1518 22.6051 69.5429 23.1294 70.0939 23.5738C70.6627 24.0181 71.3381 24.2403 72.1202 24.2403C72.5823 24.2403 72.9645 24.2048 73.2667 24.1337C73.5688 24.0626 73.8621 23.9826 74.1465 23.8937C74.2887 23.8404 74.4664 23.7515 74.6797 23.6271C74.893 23.4849 75.0885 23.3605 75.2663 23.2538C75.444 23.1294 75.5329 23.0672 75.5329 23.0672C75.5685 23.085 75.6129 23.1383 75.6662 23.2272C75.7195 23.316 75.7462 23.4049 75.7462 23.4938C75.7462 23.6893 75.6929 23.8582 75.5862 24.0004C75.4085 24.3203 75.1063 24.6491 74.6797 24.9869C74.2709 25.3068 73.7821 25.5823 73.2133 25.8134C72.6445 26.0444 72.0313 26.16 71.3737 26.16ZM68.7608 18.6947H73.08C73.24 18.6947 73.32 18.5614 73.32 18.2947C73.32 17.8681 73.2222 17.4416 73.0267 17.015C72.8489 16.5706 72.5823 16.1973 72.2268 15.8952C71.8891 15.593 71.4892 15.4419 71.0271 15.4419C70.476 15.4419 70.0139 15.6286 69.6406 16.0018C69.2852 16.3751 69.0185 16.8017 68.8408 17.2816C68.6808 17.7615 68.6008 18.1703 68.6008 18.508C68.6008 18.6325 68.6542 18.6947 68.7608 18.6947Z" fill="black"/>
<path d="M80.2821 9.63441L170.577 0.475445C173.085 0.221006 175.264 2.18999 175.264 4.71126V32.6331C175.264 35.1435 173.103 37.1089 170.604 36.8715L80.2821 28.2915V9.63441Z" fill="#04594D"/>
<path d="M114.717 27.3129H111.907L103.452 14.5189V27.3129H100.641V10.1556H103.452L111.907 22.925V10.1556H114.717V27.3129ZM130.856 20.1887C130.856 20.6981 130.824 21.1583 130.758 21.5691H120.38C120.462 22.6538 120.864 23.5248 121.588 24.1822C122.311 24.8395 123.198 25.1682 124.25 25.1682C125.762 25.1682 126.83 24.5355 127.455 23.2701H130.487C130.076 24.5191 129.328 25.5462 128.243 26.3515C127.175 27.1403 125.844 27.5347 124.25 27.5347C122.952 27.5347 121.785 27.2471 120.749 26.6719C119.731 26.0803 118.925 25.2586 118.334 24.2068C117.758 23.1386 117.471 21.906 117.471 20.5091C117.471 19.1122 117.75 17.8879 118.309 16.8361C118.884 15.7679 119.681 14.9462 120.7 14.371C121.735 13.7958 122.919 13.5082 124.25 13.5082C125.532 13.5082 126.674 13.7876 127.676 14.3463C128.679 14.9051 129.46 15.6939 130.018 16.7128C130.577 17.7153 130.856 18.8739 130.856 20.1887ZM127.923 19.3012C127.907 18.2659 127.537 17.4359 126.814 16.8115C126.091 16.187 125.195 15.8747 124.127 15.8747C123.157 15.8747 122.327 16.187 121.637 16.8115C120.947 17.4195 120.536 18.2494 120.404 19.3012H127.923ZM151.864 13.7301L147.649 27.3129H144.69L141.954 17.2798L139.218 27.3129H136.26L132.02 13.7301H134.879L137.714 24.6505L140.598 13.7301H143.532L146.293 24.6012L149.103 13.7301H151.864ZM158.894 27.5347C157.826 27.5347 156.865 27.3457 156.01 26.9677C155.172 26.5733 154.506 26.0474 154.013 25.3901C153.52 24.7163 153.257 23.9685 153.225 23.1468H156.133C156.183 23.722 156.454 24.2068 156.947 24.6012C157.456 24.9792 158.089 25.1682 158.845 25.1682C159.634 25.1682 160.242 25.0203 160.669 24.7245C161.113 24.4122 161.335 24.0178 161.335 23.5412C161.335 23.0318 161.088 22.6538 160.595 22.4073C160.119 22.1608 159.354 21.8896 158.303 21.5938C157.284 21.3144 156.454 21.0432 155.813 20.7803C155.172 20.5173 154.613 20.1147 154.137 19.5724C153.676 19.0301 153.446 18.3152 153.446 17.4277C153.446 16.7046 153.66 16.0473 154.087 15.4556C154.515 14.8476 155.123 14.371 155.912 14.0259C156.717 13.6807 157.637 13.5082 158.672 13.5082C160.217 13.5082 161.458 13.9026 162.395 14.6914C163.348 15.4639 163.857 16.5239 163.923 17.8715H161.113C161.064 17.2634 160.817 16.7786 160.373 16.417C159.93 16.0555 159.33 15.8747 158.574 15.8747C157.834 15.8747 157.267 16.0144 156.873 16.2938C156.478 16.5732 156.281 16.9429 156.281 17.4031C156.281 17.7646 156.413 18.0687 156.676 18.3152C156.939 18.5617 157.259 18.7589 157.637 18.9068C158.015 19.0383 158.574 19.2108 159.313 19.4245C160.299 19.6874 161.105 19.9586 161.729 20.238C162.37 20.5009 162.921 20.8953 163.381 21.4212C163.841 21.9471 164.079 22.6456 164.096 23.5166C164.096 24.289 163.882 24.9792 163.455 25.5873C163.027 26.1953 162.419 26.6719 161.631 27.0171C160.858 27.3622 159.946 27.5347 158.894 27.5347Z" fill="white"/>
</svg>
